<svg xmlns="http://www.w3.org/2000/svg" viewBox="0 0 381.38 65.92"><defs><style>.a{fill:#231f20;}</style></defs><title>Asset 3</title><path class="a" d="M3,55.05H1.27q-.88,0-.88-.95V40.85q0-1.34.95-1.34H2.85a.79.79,0,0,1,.79.4,15.94,15.94,0,0,1,.54,2.79q1.44,9.21,6.57,9.21A4.78,4.78,0,0,0,15,49.61,10,10,0,0,0,16.49,44a12.73,12.73,0,0,0-1.63-6.33,45.16,45.16,0,0,0-6.31-7.87,65.8,65.8,0,0,1-5.15-5.89A18.25,18.25,0,0,1,.93,19.16,17.31,17.31,0,0,1,0,13.36a15.14,15.14,0,0,1,2.94-9.6A8.8,8.8,0,0,1,10.09,0a9.4,9.4,0,0,1,4.15,1.1,3.87,3.87,0,0,0,1.34.5,1.41,1.41,0,0,0,.77-.29,2,2,0,0,1,1.05-.25h1.3q1,0,1,.95V13.64q0,.88-.77.88H17.33a.88.88,0,0,1-.83-.33,15.21,15.21,0,0,1-.69-2.55Q14.17,4,10.44,4A3.78,3.78,0,0,0,7.22,5.7,6.51,6.51,0,0,0,6,9.6a11.19,11.19,0,0,0,1.42,5.26,34.55,34.55,0,0,0,5.68,7,41.28,41.28,0,0,1,7.54,9.83,20.49,20.49,0,0,1,2.09,9.19q0,6.68-3.5,10.86A10.53,10.53,0,0,1,10.93,56a14.07,14.07,0,0,1-5-1.13,4,4,0,0,0-1.3-.39,1.85,1.85,0,0,0-.91.36A1.45,1.45,0,0,1,3,55.05Z"/><path class="a" d="M25.46,25.7H24.23q-.81,0-.81-.7V23.24a1.69,1.69,0,0,1,.77-1.34,3.27,3.27,0,0,0,1.3-1.67,11.63,11.63,0,0,0,.28-3V11.43q0-.84,1.13-1L31.19,10q.56-.07.74-.07.49,0,.49.84V21.9H36q1,0,1,.81v2.14q0,.84-.81.84h-3.8V47.07q0,3.48,2.14,3.48a4.36,4.36,0,0,0,1.05-.14,2.46,2.46,0,0,1,.6-.11.76.76,0,0,1,.81.49l.53,1.69a.81.81,0,0,1,.11.32q0,.77-2.32,1.88A10.17,10.17,0,0,1,31,55.79q-5.52,0-5.52-6.86Z"/><path class="a" d="M48.28,51.26a4.56,4.56,0,0,1-4.54,4.54,4.31,4.31,0,0,1-3.18-1.34,4.39,4.39,0,0,1-1.32-3.2,4.52,4.52,0,0,1,9,0Z"/><path class="a" d="M73.86,7.31l-.33-2.39q-.17-1.16-.17-1.3,0-.35.53-.6l6-2.77a.7.7,0,0,1,.32-.07q.49,0,.63.63l9.53,47.67a5.41,5.41,0,0,0,.62,1.86,4.41,4.41,0,0,0,1.42,1.2,1.37,1.37,0,0,1,.81,1.13v1.55q0,.84-.67.84H80.76q-.95,0-.95-.84V52.66q0-.81,1.13-1.37a2.23,2.23,0,0,0,1.38-2,5.4,5.4,0,0,0-.07-.81l-1.47-7.34H71.6L70.13,48.2a3.37,3.37,0,0,0-.11.67q0,1.05,1.57,2.32,1,.84,1,1.48v1.55q0,.84-1,.84H64.24q-1.23,0-1.23-.84V52.38a1.36,1.36,0,0,1,.77-1.2,4.37,4.37,0,0,0,1.9-3ZM76.28,18.6l-3.68,18h7.28Z"/><path class="a" d="M107,48.59V26.82a2.32,2.32,0,0,0-.95-1.65q-.53-.49-.53-.77V22.68q0-.63.67-.63l7.77-.14v28.3a2.33,2.33,0,0,0,.95,1.68q.56.5.56.78v1.71q0,.64-.7.68L107,55.2V52.45q-3.8,3.06-6.5,3.06a5.19,5.19,0,0,1-4.2-1.78,7,7,0,0,1-1.49-4.66V26.82a2.32,2.32,0,0,0-.95-1.65q-.56-.49-.56-.77V22.68q0-.63.7-.63l7.77-.14V48.16q0,2.53,1.93,2.53Q105.37,50.7,107,48.59Z"/><path class="a" d="M132.44,22.57q2.43-2.46,4.36-2.46a3.36,3.36,0,0,1,2.14.72,2.28,2.28,0,0,1,.91,1.88,1.83,1.83,0,0,1-2.07,2.07,3.25,3.25,0,0,1-1.51-.46,2.5,2.5,0,0,0-.95-.35,2.28,2.28,0,0,0-1.12.32,13.37,13.37,0,0,1,2.6,8q0,5.48-2.39,8.72a7.84,7.84,0,0,1-6.68,3.23,17.07,17.07,0,0,1-2.78-.28l-1.79,4.46h3.24q12.06,0,12.06,8.33a8,8,0,0,1-3.22,6.73,13.55,13.55,0,0,1-8.42,2.44,12.54,12.54,0,0,1-6.52-1.44,4.39,4.39,0,0,1-2.37-3.9,3.16,3.16,0,0,1,3.3-3.27,3.39,3.39,0,0,1,2.3.81,2.59,2.59,0,0,1,.93,2,3.75,3.75,0,0,1-.49,1.69,8,8,0,0,0,3.48.81,6.46,6.46,0,0,0,3.92-1.2,3.55,3.55,0,0,0,1.63-3q0-3.8-8.37-3.8-1.69,0-4.08.11-1.23.07-1.83.07-1.13,0-1.12-.67a6.58,6.58,0,0,1,.53-1.86l3.9-9.74q-3.94-3.41-3.94-9.84a14.15,14.15,0,0,1,2.3-8.31q2.3-3.29,7-3.29A9,9,0,0,1,132.44,22.57Zm-5,18.53a2.08,2.08,0,0,0,2-1.65,23.38,23.38,0,0,0,.56-6.36,27.88,27.88,0,0,0-.56-7.08q-.56-1.71-1.9-1.71-1.76,0-2.21,2.53a46.66,46.66,0,0,0-.46,7.63,16.37,16.37,0,0,0,.56,5.12A2,2,0,0,0,127.41,41.1Z"/><path class="a" d="M155.15,48.59V26.82a2.32,2.32,0,0,0-.95-1.65q-.53-.49-.53-.77V22.68q0-.63.67-.63l7.77-.14v28.3a2.33,2.33,0,0,0,.95,1.68q.56.5.56.78v1.71q0,.64-.7.68l-7.77.14V52.45q-3.8,3.06-6.5,3.06a5.19,5.19,0,0,1-4.2-1.78A7,7,0,0,1,143,49.08V26.82a2.32,2.32,0,0,0-.95-1.65q-.56-.49-.56-.77V22.68q0-.63.7-.63l7.77-.14V48.16q0,2.53,1.93,2.53Q153.54,50.7,155.15,48.59Z"/><path class="a" d="M174.81,21.16a9,9,0,0,1,5.68,1.72,5.29,5.29,0,0,1,2.23,4.36,3.64,3.64,0,0,1-1,2.6A3.55,3.55,0,0,1,179,30.94a3.81,3.81,0,0,1-2.37-.79,2.68,2.68,0,0,1-1-2.27,3.38,3.38,0,0,1,.32-1.34,2.09,2.09,0,0,0,.21-.74q0-1.23-1.87-1.23a3.39,3.39,0,0,0-2.38,1,3.49,3.49,0,0,0-1,2.69,4.7,4.7,0,0,0,.95,2.79,25.68,25.68,0,0,0,5,4.24,21.46,21.46,0,0,1,5.45,5.19,9.6,9.6,0,0,1,1.55,5.36,9.17,9.17,0,0,1-3.06,7.37,10.82,10.82,0,0,1-7.28,2.62A10.31,10.31,0,0,1,167,53.88,5.9,5.9,0,0,1,164.48,49a4.22,4.22,0,0,1,1-2.79A3.5,3.5,0,0,1,168.31,45q3.38,0,3.38,3.2a5.82,5.82,0,0,1-.22,1.37,4.77,4.77,0,0,0-.22,1.09q0,1.72,2.46,1.72a4.31,4.31,0,0,0,3.1-1.18A3.63,3.63,0,0,0,178,48.55a4.87,4.87,0,0,0-1.07-3,24.47,24.47,0,0,0-4.2-3.78,30.91,30.91,0,0,1-5.94-5.57,9.19,9.19,0,0,1-1.72-5.61,8.61,8.61,0,0,1,3-6.79A9.92,9.92,0,0,1,174.81,21.16Z"/><path class="a" d="M186,25.7h-1.23q-.81,0-.81-.7V23.24a1.69,1.69,0,0,1,.77-1.34,3.27,3.27,0,0,0,1.3-1.67,11.63,11.63,0,0,0,.28-3V11.43q0-.84,1.13-1l4.29-.46q.56-.07.74-.07.49,0,.49.84V21.9h3.59q1,0,1,.81v2.14q0,.84-.81.84H193V47.07q0,3.48,2.14,3.48a4.36,4.36,0,0,0,1.05-.14,2.46,2.46,0,0,1,.6-.11.76.76,0,0,1,.81.49l.53,1.69a.81.81,0,0,1,.11.32q0,.77-2.32,1.88a10.16,10.16,0,0,1-4.36,1.11q-5.52,0-5.52-6.86Z"/><path class="a" d="M208.08,21.9V49.46a2.69,2.69,0,0,0,1.51,2.6,1.11,1.11,0,0,1,.63,1v1.3q0,.67-.77.67h-9.7q-.77,0-.77-.67v-1.3a1.06,1.06,0,0,1,.67-1,2.65,2.65,0,0,0,1.48-2.6V27.74a2.75,2.75,0,0,0-1.51-2.67,1.05,1.05,0,0,1-.63-.92V22.82q0-.64.77-.68Zm-3.66-10.6a4.15,4.15,0,0,1,3.06,1.23,4.07,4.07,0,0,1,1.23,3,4.2,4.2,0,0,1-4.18,4.18,4.07,4.07,0,0,1-3-1.23,4,4,0,0,1-1.23-3,4,4,0,0,1,1.28-3A4.07,4.07,0,0,1,204.43,11.3Z"/><path class="a" d="M213.64,49.57V27.74a2.7,2.7,0,0,0-1.51-2.67,1,1,0,0,1-.63-.92V22.82q0-.64.77-.68l8.33-.25v2.88a8.85,8.85,0,0,1,6.54-3.2,4.84,4.84,0,0,1,4.13,2,8.76,8.76,0,0,1,1.49,5.31V50a3.6,3.6,0,0,0,.95,2.25,1.75,1.75,0,0,1,.46.77v1.48q0,.56-.53.56h-8.58q-.6,0-.6-.56V52.66a.75.75,0,0,1,.39-.56,2.18,2.18,0,0,0,.95-1.76V28.93q0-2.57-1.83-2.57t-3.37,2.11V50a3,3,0,0,0,.81,2.07q.39.42.39.6V54.6q0,.46-.49.46h-8.72q-.56,0-.56-.53V52.66q0-.25.46-.6A3,3,0,0,0,213.64,49.57Z"/><path class="a" d="M254.37,46.48q-.81,9.32-8.4,9.32a9.24,9.24,0,0,1-8-4.25q-3-4.25-3-12.73,0-8.23,2.79-12.94t7.51-4.71a7.89,7.89,0,0,1,6.75,3.66q2.56,3.66,2.57,9.67v3c0,.56-.29.84-.88.84h-11v2.88a22.4,22.4,0,0,0,.92,7.28,3.28,3.28,0,0,0,3.2,2.53q2.67,0,3.7-5.13Zm-6.47-12.06V29.57q0-5.06-2.6-5.06T242.81,31v3.45Z"/><path class="a" d="M272,48.52V6.89a3.07,3.07,0,0,0-1.34-2.71,1.71,1.71,0,0,1-.91-1.44V1.2c0-.54.3-.81.91-.81h12.69l4,25.63,4-25.63h12.83c.51,0,.77.25.77.74V2.74A1.78,1.78,0,0,1,304,4.18a3.12,3.12,0,0,0-1.34,2.71V48.52A3.08,3.08,0,0,0,304,51.26a1.7,1.7,0,0,1,.88,1.41v1.58q0,.81-.91.81H293.4a.65.65,0,0,1-.74-.74V52.66a1.76,1.76,0,0,1,.87-1.41,3.14,3.14,0,0,0,1.36-2.74V5.89l-7.58,49.17h-2.8L277,5.89V48.51a3.11,3.11,0,0,0,1.33,2.74,1.7,1.7,0,0,1,.91,1.41v1.58q0,.81-.91.81h-7.84q-.77,0-.77-.74V52.66a1.75,1.75,0,0,1,.91-1.41A3.16,3.16,0,0,0,272,48.52Z"/><path class="a" d="M319.38,48.59V26.82a2.32,2.32,0,0,0-.95-1.65q-.53-.49-.53-.77V22.68q0-.63.67-.63l7.77-.14v28.3a2.33,2.33,0,0,0,.95,1.68q.56.5.56.78v1.71q0,.64-.7.68l-7.77.14V52.45q-3.8,3.06-6.5,3.06a5.19,5.19,0,0,1-4.2-1.78,7,7,0,0,1-1.49-4.66V26.82a2.32,2.32,0,0,0-.95-1.65q-.56-.49-.56-.77V22.68c0-.42.23-.63.7-.63l7.77-.14V48.16q0,2.53,1.93,2.53Q317.76,50.7,319.38,48.59Z"/><path class="a" d="M339.4,21.16a9,9,0,0,1,5.68,1.72,5.29,5.29,0,0,1,2.23,4.36,3.64,3.64,0,0,1-1,2.6,3.55,3.55,0,0,1-2.69,1.09,3.81,3.81,0,0,1-2.37-.79,2.68,2.68,0,0,1-1-2.27,3.38,3.38,0,0,1,.32-1.34,2.1,2.1,0,0,0,.21-.74q0-1.23-1.87-1.23a3.39,3.39,0,0,0-2.38,1,3.49,3.49,0,0,0-1,2.69,4.7,4.7,0,0,0,.95,2.79,25.68,25.68,0,0,0,5,4.24,21.46,21.46,0,0,1,5.45,5.19,9.6,9.6,0,0,1,1.55,5.36,9.17,9.17,0,0,1-3.06,7.37A10.82,10.82,0,0,1,338,55.79a10.31,10.31,0,0,1-6.49-1.92A5.9,5.9,0,0,1,329.07,49a4.22,4.22,0,0,1,1-2.79A3.5,3.5,0,0,1,332.9,45q3.38,0,3.38,3.2a5.86,5.86,0,0,1-.21,1.37,4.76,4.76,0,0,0-.22,1.09q0,1.72,2.46,1.72a4.3,4.3,0,0,0,3.1-1.18,3.63,3.63,0,0,0,1.23-2.69,4.87,4.87,0,0,0-1.07-3,24.45,24.45,0,0,0-4.2-3.78,30.92,30.92,0,0,1-5.94-5.57,9.19,9.19,0,0,1-1.72-5.61,8.61,8.61,0,0,1,3-6.79A9.92,9.92,0,0,1,339.4,21.16Z"/><path class="a" d="M358.3,21.9V49.46a2.69,2.69,0,0,0,1.51,2.6,1.11,1.11,0,0,1,.63,1v1.3q0,.67-.77.67H350q-.77,0-.77-.67v-1.3a1.06,1.06,0,0,1,.67-1,2.65,2.65,0,0,0,1.48-2.6V27.74a2.75,2.75,0,0,0-1.51-2.67,1.05,1.05,0,0,1-.63-.92V22.82q0-.64.77-.68Zm-3.66-10.6a4.15,4.15,0,0,1,3.06,1.23,4.07,4.07,0,0,1,1.23,3,4.2,4.2,0,0,1-4.18,4.18,4.07,4.07,0,0,1-3-1.23,4,4,0,0,1-1.23-3,4,4,0,0,1,1.28-3A4.07,4.07,0,0,1,354.64,11.3Z"/><path class="a" d="M381.38,44.72q-.63,11.07-8.68,11.07a9.3,9.3,0,0,1-7.8-4.18q-3.06-4.18-3.06-12.8,0-9,3.25-13.34a9.87,9.87,0,0,1,8.17-4.31,8.21,8.21,0,0,1,5.61,2,6.3,6.3,0,0,1,2.27,4.94,4.13,4.13,0,0,1-1.05,3,3.49,3.49,0,0,1-2.64,1.11,3.1,3.1,0,0,1-3.2-3.16,4.49,4.49,0,0,1,.88-2.5,1.78,1.78,0,0,0,.39-.84q0-1.16-1.86-1.16-4,0-4,8.12v8.12Q369.6,51,373.86,51q3.24,0,3.73-6.68Z"/></svg>